<svg xmlns="http://www.w3.org/2000/svg" xmlns:xlink="http://www.w3.org/1999/xlink" width="500" zoomAndPan="magnify" viewBox="0 0 375 195.000001" height="260" preserveAspectRatio="xMidYMid meet" version="1.0"><defs><g/></defs><g fill="#d9d9d9" fill-opacity="1"><g transform="translate(16.164599, 146.573107)"><g><path d="M 14.25 -24 C 15.394531 -24 16.382812 -23.890625 17.21875 -23.671875 C 18.050781 -23.453125 18.851562 -23.175781 19.625 -22.84375 C 20.257812 -22.59375 20.671875 -22.46875 20.859375 -22.46875 C 21.128906 -22.46875 21.390625 -22.609375 21.640625 -22.890625 C 21.890625 -23.171875 22.0625 -23.539062 22.15625 -24 L 22.734375 -24 L 23.3125 -16.0625 L 22.734375 -16.0625 C 22.523438 -17.457031 22.015625 -18.65625 21.203125 -19.65625 C 20.398438 -20.65625 19.410156 -21.410156 18.234375 -21.921875 C 17.066406 -22.441406 15.832031 -22.703125 14.53125 -22.703125 C 11.863281 -22.703125 9.722656 -21.75 8.109375 -19.84375 C 6.503906 -17.9375 5.703125 -15.0625 5.703125 -11.21875 C 5.703125 -8.9375 6.140625 -7.023438 7.015625 -5.484375 C 7.898438 -3.941406 9.050781 -2.800781 10.46875 -2.0625 C 11.894531 -1.320312 13.421875 -0.953125 15.046875 -0.953125 C 16.703125 -0.953125 18.28125 -1.375 19.78125 -2.21875 C 21.289062 -3.0625 22.46875 -4.191406 23.3125 -5.609375 L 23.828125 -5.265625 C 21.566406 -1.410156 18.238281 0.515625 13.84375 0.515625 C 11.5625 0.515625 9.472656 -0.015625 7.578125 -1.078125 C 5.691406 -2.140625 4.195312 -3.582031 3.09375 -5.40625 C 1.988281 -7.226562 1.4375 -9.234375 1.4375 -11.421875 C 1.4375 -13.722656 2.003906 -15.835938 3.140625 -17.765625 C 4.285156 -19.691406 5.835938 -21.210938 7.796875 -22.328125 C 9.753906 -23.441406 11.90625 -24 14.25 -24 Z M 14.25 -24 "/></g></g></g><g fill="#d9d9d9" fill-opacity="1"><g transform="translate(40.743151, 146.573107)"><g><path d="M 3.9375 -4.546875 L 12.6875 -24.515625 L 13.296875 -24.515625 L 22.53125 -3.25 C 22.875 -2.46875 23.195312 -1.890625 23.5 -1.515625 C 23.8125 -1.140625 24.132812 -0.894531 24.46875 -0.78125 C 24.8125 -0.664062 25.28125 -0.609375 25.875 -0.609375 L 25.875 0 L 16.234375 0 L 16.234375 -0.609375 C 17.054688 -0.609375 17.671875 -0.753906 18.078125 -1.046875 C 18.492188 -1.347656 18.703125 -1.75 18.703125 -2.25 C 18.703125 -2.6875 18.550781 -3.222656 18.25 -3.859375 L 16.484375 -7.890625 L 7.015625 -7.890625 L 5.0625 -3.421875 C 4.832031 -2.960938 4.71875 -2.550781 4.71875 -2.1875 C 4.71875 -1.132812 5.5625 -0.609375 7.25 -0.609375 L 7.25 0 L 0.484375 0 L 0.484375 -0.609375 C 1.046875 -0.679688 1.503906 -0.847656 1.859375 -1.109375 C 2.210938 -1.367188 2.53125 -1.75 2.8125 -2.25 C 3.101562 -2.757812 3.476562 -3.523438 3.9375 -4.546875 Z M 15.9375 -9.203125 L 11.765625 -18.734375 L 7.59375 -9.203125 Z M 15.9375 -9.203125 "/></g></g></g><g fill="#d9d9d9" fill-opacity="1"><g transform="translate(67.099293, 146.573107)"><g><path d="M 20.234375 -17.375 C 20.234375 -15.9375 19.742188 -14.695312 18.765625 -13.65625 C 17.785156 -12.625 16.296875 -11.851562 14.296875 -11.34375 L 19.71875 -4.609375 C 20.382812 -3.796875 20.941406 -3.144531 21.390625 -2.65625 C 21.847656 -2.164062 22.414062 -1.71875 23.09375 -1.3125 C 23.769531 -0.914062 24.515625 -0.679688 25.328125 -0.609375 L 25.328125 0 L 19.21875 0 L 10.359375 -11.015625 L 8.109375 -11.015625 L 8.109375 -3.390625 C 8.109375 -2.378906 8.363281 -1.660156 8.875 -1.234375 C 9.382812 -0.816406 10.1875 -0.609375 11.28125 -0.609375 L 11.421875 -0.609375 L 11.421875 0 L 1.15625 0 L 1.15625 -0.609375 C 2.25 -0.609375 3.0625 -0.800781 3.59375 -1.1875 C 4.132812 -1.582031 4.40625 -2.28125 4.40625 -3.28125 L 4.40625 -20.265625 C 4.40625 -21.179688 4.132812 -21.84375 3.59375 -22.25 C 3.0625 -22.664062 2.25 -22.875 1.15625 -22.875 L 1.15625 -23.484375 L 12.140625 -23.484375 C 14.367188 -23.484375 16.273438 -22.984375 17.859375 -21.984375 C 19.441406 -20.984375 20.234375 -19.445312 20.234375 -17.375 Z M 8.109375 -21.671875 L 8.109375 -12.171875 L 8.953125 -12.171875 C 11.253906 -12.171875 13 -12.617188 14.1875 -13.515625 C 15.375 -14.421875 15.96875 -15.671875 15.96875 -17.265625 C 15.96875 -18.648438 15.515625 -19.832031 14.609375 -20.8125 C 13.710938 -21.800781 12.441406 -22.296875 10.796875 -22.296875 C 9.910156 -22.296875 9.015625 -22.085938 8.109375 -21.671875 Z M 8.109375 -21.671875 "/></g></g></g><g fill="#d9d9d9" fill-opacity="1"><g transform="translate(93.455435, 146.573107)"><g><path d="M 13.15625 -24 C 15.320312 -24 17.316406 -23.453125 19.140625 -22.359375 C 20.960938 -21.265625 22.410156 -19.773438 23.484375 -17.890625 C 24.554688 -16.015625 25.09375 -13.957031 25.09375 -11.71875 C 25.09375 -9.507812 24.554688 -7.460938 23.484375 -5.578125 C 22.410156 -3.703125 20.960938 -2.21875 19.140625 -1.125 C 17.316406 -0.03125 15.320312 0.515625 13.15625 0.515625 C 11 0.515625 9.003906 -0.03125 7.171875 -1.125 C 5.347656 -2.21875 3.90625 -3.703125 2.84375 -5.578125 C 1.789062 -7.460938 1.265625 -9.507812 1.265625 -11.71875 C 1.265625 -13.957031 1.789062 -16.015625 2.84375 -17.890625 C 3.90625 -19.773438 5.347656 -21.265625 7.171875 -22.359375 C 9.003906 -23.453125 11 -24 13.15625 -24 Z M 5.53125 -11.71875 C 5.53125 -9.53125 5.84375 -7.609375 6.46875 -5.953125 C 7.101562 -4.304688 7.992188 -3.03125 9.140625 -2.125 C 10.296875 -1.226562 11.632812 -0.78125 13.15625 -0.78125 C 14.6875 -0.78125 16.03125 -1.226562 17.1875 -2.125 C 18.351562 -3.03125 19.25 -4.304688 19.875 -5.953125 C 20.5 -7.609375 20.8125 -9.53125 20.8125 -11.71875 C 20.8125 -13.863281 20.503906 -15.769531 19.890625 -17.4375 C 19.273438 -19.101562 18.390625 -20.394531 17.234375 -21.3125 C 16.085938 -22.238281 14.71875 -22.703125 13.125 -22.703125 C 11.550781 -22.703125 10.191406 -22.234375 9.046875 -21.296875 C 7.910156 -20.359375 7.039062 -19.054688 6.4375 -17.390625 C 5.832031 -15.734375 5.53125 -13.84375 5.53125 -11.71875 Z M 5.53125 -11.71875 "/></g></g></g><g fill="#d9d9d9" fill-opacity="1"><g transform="translate(119.811577, 146.573107)"><g><path d="M 11.96875 -22.875 C 10.78125 -22.875 9.929688 -22.6875 9.421875 -22.3125 C 8.910156 -21.9375 8.65625 -21.175781 8.65625 -20.03125 L 8.65625 -2.875 C 8.65625 -2.394531 8.75 -2.050781 8.9375 -1.84375 C 9.132812 -1.632812 9.460938 -1.53125 9.921875 -1.53125 L 15.015625 -1.53125 C 16.191406 -1.53125 17.164062 -1.6875 17.9375 -2 C 18.71875 -2.3125 19.382812 -2.8125 19.9375 -3.5 C 20.5 -4.195312 21.046875 -5.1875 21.578125 -6.46875 L 22.15625 -6.25 L 20.171875 0 L 1.4375 0 L 1.4375 -0.609375 L 1.671875 -0.609375 C 2.835938 -0.609375 3.675781 -0.8125 4.1875 -1.21875 C 4.695312 -1.632812 4.953125 -2.378906 4.953125 -3.453125 L 4.953125 -20.0625 C 4.953125 -21.113281 4.679688 -21.84375 4.140625 -22.25 C 3.609375 -22.664062 2.773438 -22.875 1.640625 -22.875 L 1.4375 -22.875 L 1.4375 -23.484375 L 11.96875 -23.484375 Z M 11.96875 -22.875 "/></g></g></g><g fill="#d9d9d9" fill-opacity="1"><g transform="translate(142.612552, 146.573107)"><g><path d="M 12 -22.875 C 11.039062 -22.875 10.3125 -22.785156 9.8125 -22.609375 C 9.3125 -22.441406 8.957031 -22.132812 8.75 -21.6875 C 8.539062 -21.25 8.4375 -20.609375 8.4375 -19.765625 L 8.4375 -3.421875 C 8.4375 -2.640625 8.5625 -2.050781 8.8125 -1.65625 C 9.070312 -1.257812 9.453125 -0.992188 9.953125 -0.859375 C 10.453125 -0.722656 11.132812 -0.640625 12 -0.609375 L 12 0 L 1.203125 0 L 1.203125 -0.609375 C 2.109375 -0.640625 2.804688 -0.722656 3.296875 -0.859375 C 3.785156 -0.992188 4.148438 -1.257812 4.390625 -1.65625 C 4.628906 -2.050781 4.75 -2.648438 4.75 -3.453125 L 4.75 -19.765625 C 4.75 -20.609375 4.640625 -21.242188 4.421875 -21.671875 C 4.210938 -22.109375 3.859375 -22.410156 3.359375 -22.578125 C 2.867188 -22.753906 2.148438 -22.851562 1.203125 -22.875 L 1.203125 -23.484375 L 12 -23.484375 Z M 12 -22.875 "/></g></g></g><g fill="#d9d9d9" fill-opacity="1"><g transform="translate(155.773526, 146.573107)"><g><path d="M 22.46875 -6.15625 L 22.46875 -20.234375 C 22.46875 -21.265625 22.285156 -21.957031 21.921875 -22.3125 C 21.554688 -22.664062 20.878906 -22.851562 19.890625 -22.875 L 19.046875 -22.875 L 19.046875 -23.484375 L 27.6875 -23.484375 L 27.6875 -22.875 L 26.96875 -22.875 C 26.0625 -22.875 25.410156 -22.816406 25.015625 -22.703125 C 24.628906 -22.585938 24.363281 -22.316406 24.21875 -21.890625 C 24.070312 -21.472656 24 -20.785156 24 -19.828125 L 24 0.28125 L 23.515625 0.28125 L 6.734375 -18.625 L 6.734375 -3.96875 C 6.734375 -2.6875 6.988281 -1.804688 7.5 -1.328125 C 8.007812 -0.847656 8.894531 -0.609375 10.15625 -0.609375 L 10.15625 0 L 1.671875 0 L 1.671875 -0.609375 L 1.875 -0.609375 C 2.96875 -0.609375 3.800781 -0.804688 4.375 -1.203125 C 4.945312 -1.609375 5.234375 -2.347656 5.234375 -3.421875 L 5.234375 -20.140625 C 4.640625 -21.140625 3.960938 -21.84375 3.203125 -22.25 C 2.453125 -22.664062 1.53125 -22.875 0.4375 -22.875 L 0.4375 -23.484375 L 7.28125 -23.484375 Z M 22.46875 -6.15625 "/></g></g></g><g fill="#d9d9d9" fill-opacity="1"><g transform="translate(183.90726, 146.573107)"><g><path d="M 20.140625 -18.296875 L 19.5625 -18.296875 C 19.332031 -19.585938 18.910156 -20.546875 18.296875 -21.171875 C 17.679688 -21.804688 16.820312 -22.125 15.71875 -22.125 L 8.3125 -22.125 L 8.3125 -13.0625 L 14.390625 -13.0625 C 15.484375 -13.0625 16.257812 -13.332031 16.71875 -13.875 C 17.175781 -14.425781 17.414062 -15.296875 17.4375 -16.484375 L 18.046875 -16.484375 L 18.046875 -8.203125 L 17.4375 -8.203125 C 17.4375 -9.390625 17.207031 -10.265625 16.75 -10.828125 C 16.289062 -11.398438 15.484375 -11.6875 14.328125 -11.6875 L 8.3125 -11.6875 L 8.3125 -3.109375 C 8.3125 -1.953125 8.765625 -1.375 9.671875 -1.375 L 15.6875 -1.375 C 16.945312 -1.375 18.050781 -1.753906 19 -2.515625 C 19.957031 -3.273438 20.734375 -4.382812 21.328125 -5.84375 L 22.046875 -5.84375 L 20.140625 0 L 1.234375 0 L 1.234375 -0.609375 C 2.421875 -0.609375 3.28125 -0.804688 3.8125 -1.203125 C 4.34375 -1.609375 4.609375 -2.359375 4.609375 -3.453125 L 4.609375 -20.265625 C 4.609375 -21.179688 4.34375 -21.84375 3.8125 -22.25 C 3.28125 -22.664062 2.421875 -22.875 1.234375 -22.875 L 1.234375 -23.484375 L 19.859375 -23.484375 Z M 20.140625 -18.296875 "/></g></g></g><g fill="#d9d9d9" fill-opacity="1"><g transform="translate(206.708234, 146.573107)"><g/></g></g><g fill="#d9d9d9" fill-opacity="1"><g transform="translate(215.254327, 146.573107)"><g><path d="M 26.734375 -11.765625 C 26.734375 -9.410156 26.125 -7.34375 24.90625 -5.5625 C 23.6875 -3.789062 22.039062 -2.421875 19.96875 -1.453125 C 17.894531 -0.484375 15.625 0 13.15625 0 L 1.09375 0 L 1.09375 -0.609375 C 2.320312 -0.640625 3.203125 -0.847656 3.734375 -1.234375 C 4.273438 -1.617188 4.546875 -2.359375 4.546875 -3.453125 L 4.546875 -20.109375 C 4.546875 -21.203125 4.257812 -21.9375 3.6875 -22.3125 C 3.125 -22.6875 2.257812 -22.875 1.09375 -22.875 L 1.09375 -23.484375 L 14.1875 -23.484375 C 16.8125 -23.484375 19.070312 -22.925781 20.96875 -21.8125 C 22.875 -20.695312 24.3125 -19.242188 25.28125 -17.453125 C 26.25 -15.660156 26.734375 -13.765625 26.734375 -11.765625 Z M 8.234375 -21.609375 L 8.234375 -1.703125 C 9.378906 -1.367188 10.613281 -1.203125 11.9375 -1.203125 C 14.03125 -1.203125 15.875 -1.628906 17.46875 -2.484375 C 19.0625 -3.335938 20.289062 -4.550781 21.15625 -6.125 C 22.03125 -7.695312 22.46875 -9.507812 22.46875 -11.5625 C 22.46875 -13.601562 22.03125 -15.425781 21.15625 -17.03125 C 20.289062 -18.644531 19.066406 -19.90625 17.484375 -20.8125 C 15.898438 -21.726562 14.082031 -22.1875 12.03125 -22.1875 C 10.664062 -22.1875 9.398438 -21.992188 8.234375 -21.609375 Z M 8.234375 -21.609375 "/></g></g></g><g fill="#d9d9d9" fill-opacity="1"><g transform="translate(243.388061, 146.573107)"><g><path d="M 20.140625 -18.296875 L 19.5625 -18.296875 C 19.332031 -19.585938 18.910156 -20.546875 18.296875 -21.171875 C 17.679688 -21.804688 16.820312 -22.125 15.71875 -22.125 L 8.3125 -22.125 L 8.3125 -13.0625 L 14.390625 -13.0625 C 15.484375 -13.0625 16.257812 -13.332031 16.71875 -13.875 C 17.175781 -14.425781 17.414062 -15.296875 17.4375 -16.484375 L 18.046875 -16.484375 L 18.046875 -8.203125 L 17.4375 -8.203125 C 17.4375 -9.390625 17.207031 -10.265625 16.75 -10.828125 C 16.289062 -11.398438 15.484375 -11.6875 14.328125 -11.6875 L 8.3125 -11.6875 L 8.3125 -3.109375 C 8.3125 -1.953125 8.765625 -1.375 9.671875 -1.375 L 15.6875 -1.375 C 16.945312 -1.375 18.050781 -1.753906 19 -2.515625 C 19.957031 -3.273438 20.734375 -4.382812 21.328125 -5.84375 L 22.046875 -5.84375 L 20.140625 0 L 1.234375 0 L 1.234375 -0.609375 C 2.421875 -0.609375 3.28125 -0.804688 3.8125 -1.203125 C 4.34375 -1.609375 4.609375 -2.359375 4.609375 -3.453125 L 4.609375 -20.265625 C 4.609375 -21.179688 4.34375 -21.84375 3.8125 -22.25 C 3.28125 -22.664062 2.421875 -22.875 1.234375 -22.875 L 1.234375 -23.484375 L 19.859375 -23.484375 Z M 20.140625 -18.296875 "/></g></g></g><g fill="#d9d9d9" fill-opacity="1"><g transform="translate(266.18905, 146.573107)"><g><path d="M 11.96875 -22.875 C 10.78125 -22.875 9.929688 -22.6875 9.421875 -22.3125 C 8.910156 -21.9375 8.65625 -21.175781 8.65625 -20.03125 L 8.65625 -2.875 C 8.65625 -2.394531 8.75 -2.050781 8.9375 -1.84375 C 9.132812 -1.632812 9.460938 -1.53125 9.921875 -1.53125 L 15.015625 -1.53125 C 16.191406 -1.53125 17.164062 -1.6875 17.9375 -2 C 18.71875 -2.3125 19.382812 -2.8125 19.9375 -3.5 C 20.5 -4.195312 21.046875 -5.1875 21.578125 -6.46875 L 22.15625 -6.25 L 20.171875 0 L 1.4375 0 L 1.4375 -0.609375 L 1.671875 -0.609375 C 2.835938 -0.609375 3.675781 -0.8125 4.1875 -1.21875 C 4.695312 -1.632812 4.953125 -2.378906 4.953125 -3.453125 L 4.953125 -20.0625 C 4.953125 -21.113281 4.679688 -21.84375 4.140625 -22.25 C 3.609375 -22.664062 2.773438 -22.875 1.640625 -22.875 L 1.4375 -22.875 L 1.4375 -23.484375 L 11.96875 -23.484375 Z M 11.96875 -22.875 "/></g></g></g><g fill="#d9d9d9" fill-opacity="1"><g transform="translate(288.99001, 146.573107)"><g><path d="M 21.640625 -18.421875 L 20.984375 -18.421875 C 20.828125 -19.742188 20.34375 -20.722656 19.53125 -21.359375 C 18.726562 -22.003906 17.503906 -22.328125 15.859375 -22.328125 L 8.4375 -22.328125 L 8.4375 -13.0625 L 14.25 -13.0625 C 15.488281 -13.0625 16.351562 -13.28125 16.84375 -13.71875 C 17.332031 -14.164062 17.578125 -14.867188 17.578125 -15.828125 L 17.578125 -16.375 L 18.1875 -16.375 L 18.1875 -8.375 L 17.578125 -8.375 L 17.578125 -8.78125 C 17.578125 -9.789062 17.335938 -10.523438 16.859375 -10.984375 C 16.378906 -11.453125 15.625 -11.6875 14.59375 -11.6875 L 8.4375 -11.6875 L 8.4375 -3.421875 C 8.4375 -2.328125 8.707031 -1.582031 9.25 -1.1875 C 9.800781 -0.800781 10.660156 -0.609375 11.828125 -0.609375 L 11.828125 0 L 1.46875 0 L 1.46875 -0.609375 L 1.671875 -0.609375 C 2.703125 -0.609375 3.472656 -0.816406 3.984375 -1.234375 C 4.492188 -1.660156 4.75 -2.398438 4.75 -3.453125 L 4.75 -20.203125 C 4.75 -21.160156 4.484375 -21.84375 3.953125 -22.25 C 3.429688 -22.664062 2.601562 -22.875 1.46875 -22.875 L 1.46875 -23.484375 L 21.40625 -23.484375 Z M 21.640625 -18.421875 "/></g></g></g><g fill="#d9d9d9" fill-opacity="1"><g transform="translate(311.79097, 146.573107)"><g><path d="M 12 -22.875 C 11.039062 -22.875 10.3125 -22.785156 9.8125 -22.609375 C 9.3125 -22.441406 8.957031 -22.132812 8.75 -21.6875 C 8.539062 -21.25 8.4375 -20.609375 8.4375 -19.765625 L 8.4375 -3.421875 C 8.4375 -2.640625 8.5625 -2.050781 8.8125 -1.65625 C 9.070312 -1.257812 9.453125 -0.992188 9.953125 -0.859375 C 10.453125 -0.722656 11.132812 -0.640625 12 -0.609375 L 12 0 L 1.203125 0 L 1.203125 -0.609375 C 2.109375 -0.640625 2.804688 -0.722656 3.296875 -0.859375 C 3.785156 -0.992188 4.148438 -1.257812 4.390625 -1.65625 C 4.628906 -2.050781 4.75 -2.648438 4.75 -3.453125 L 4.75 -19.765625 C 4.75 -20.609375 4.640625 -21.242188 4.421875 -21.671875 C 4.210938 -22.109375 3.859375 -22.410156 3.359375 -22.578125 C 2.867188 -22.753906 2.148438 -22.851562 1.203125 -22.875 L 1.203125 -23.484375 L 12 -23.484375 Z M 12 -22.875 "/></g></g></g><g fill="#d9d9d9" fill-opacity="1"><g transform="translate(324.951929, 146.573107)"><g><path d="M 16.984375 -5.53125 L 25.234375 -23.484375 L 32.375 -23.484375 L 32.375 -22.875 L 32.140625 -22.875 C 31.046875 -22.875 30.234375 -22.675781 29.703125 -22.28125 C 29.179688 -21.894531 28.921875 -21.15625 28.921875 -20.0625 L 28.921875 -3.390625 C 28.921875 -2.378906 29.171875 -1.660156 29.671875 -1.234375 C 30.171875 -0.816406 31.015625 -0.609375 32.203125 -0.609375 L 32.375 -0.609375 L 32.375 0 L 21.78125 0 L 21.78125 -0.609375 L 22.078125 -0.609375 C 23.148438 -0.609375 23.941406 -0.816406 24.453125 -1.234375 C 24.972656 -1.660156 25.234375 -2.398438 25.234375 -3.453125 L 25.234375 -19.6875 L 25.15625 -19.6875 L 16.140625 0 L 15.515625 0 L 6.5 -19.6875 L 6.421875 -19.6875 L 6.421875 -3.421875 C 6.421875 -2.328125 6.671875 -1.59375 7.171875 -1.21875 C 7.679688 -0.84375 8.523438 -0.640625 9.703125 -0.609375 L 9.703125 0 L 1.46875 0 L 1.46875 -0.609375 L 1.671875 -0.609375 C 2.765625 -0.609375 3.570312 -0.804688 4.09375 -1.203125 C 4.625 -1.609375 4.890625 -2.359375 4.890625 -3.453125 L 4.890625 -19.484375 C 4.890625 -20.554688 4.613281 -21.359375 4.0625 -21.890625 C 3.519531 -22.429688 2.65625 -22.757812 1.46875 -22.875 L 1.46875 -23.484375 L 8.65625 -23.484375 Z M 16.984375 -5.53125 "/></g></g></g><g fill="#d9d9d9" fill-opacity="1"><g transform="translate(80.322863, 181.607673)"><g><path d="M 12.734375 0 L 11.125 0 L 9.5625 -3.703125 L 3.21875 -3.703125 L 1.65625 0 L 0.0625 0 L 5.484375 -12.78125 L 7.296875 -12.78125 Z M 9 -5.046875 L 6.390625 -11.28125 L 3.78125 -5.046875 Z M 9 -5.046875 "/></g></g></g><g fill="#d9d9d9" fill-opacity="1"><g transform="translate(108.566855, 181.607673)"><g><path d="M 6.953125 -12.78125 C 7.710938 -12.78125 8.445312 -12.632812 9.15625 -12.34375 C 9.863281 -12.0625 10.488281 -11.640625 11.03125 -11.078125 C 12.226562 -9.859375 12.828125 -8.296875 12.828125 -6.390625 C 12.828125 -4.484375 12.226562 -2.921875 11.03125 -1.703125 C 10.488281 -1.148438 9.863281 -0.726562 9.15625 -0.4375 C 8.445312 -0.144531 7.710938 0 6.953125 0 L 1.5625 0 L 1.5625 -12.78125 Z M 6.890625 -1.375 C 8.234375 -1.375 9.320312 -1.867188 10.15625 -2.859375 C 10.96875 -3.804688 11.375 -4.984375 11.375 -6.390625 C 11.375 -7.796875 10.96875 -8.972656 10.15625 -9.921875 C 9.320312 -10.910156 8.234375 -11.40625 6.890625 -11.40625 L 3.015625 -11.40625 L 3.015625 -1.375 Z M 6.890625 -1.375 "/></g></g></g><g fill="#d9d9d9" fill-opacity="1"><g transform="translate(137.622214, 181.607673)"><g><path d="M 12.0625 -12.78125 L 6.890625 0 L 5.234375 0 L 0.0625 -12.78125 L 1.640625 -12.78125 L 6.0625 -1.640625 L 10.484375 -12.78125 Z M 12.0625 -12.78125 "/></g></g></g><g fill="#d9d9d9" fill-opacity="1"><g transform="translate(165.209373, 181.607673)"><g><path d="M 7.234375 -12.9375 C 9.140625 -12.9375 10.707031 -12.300781 11.9375 -11.03125 C 13.132812 -9.789062 13.734375 -8.242188 13.734375 -6.390625 C 13.734375 -4.535156 13.132812 -2.988281 11.9375 -1.75 C 10.707031 -0.476562 9.140625 0.15625 7.234375 0.15625 C 5.335938 0.15625 3.773438 -0.476562 2.546875 -1.75 C 1.347656 -2.988281 0.75 -4.535156 0.75 -6.390625 C 0.75 -8.242188 1.347656 -9.789062 2.546875 -11.03125 C 3.773438 -12.300781 5.335938 -12.9375 7.234375 -12.9375 Z M 7.234375 -1.25 C 8.753906 -1.25 9.988281 -1.75 10.9375 -2.75 C 11.832031 -3.695312 12.28125 -4.910156 12.28125 -6.390625 C 12.28125 -7.867188 11.832031 -9.085938 10.9375 -10.046875 C 9.988281 -11.035156 8.753906 -11.53125 7.234375 -11.53125 C 5.722656 -11.53125 4.492188 -11.035156 3.546875 -10.046875 C 2.648438 -9.085938 2.203125 -7.867188 2.203125 -6.390625 C 2.203125 -4.910156 2.648438 -3.695312 3.546875 -2.75 C 4.492188 -1.75 5.722656 -1.25 7.234375 -1.25 Z M 7.234375 -1.25 "/></g></g></g><g fill="#d9d9d9" fill-opacity="1"><g transform="translate(195.153375, 181.607673)"><g><path d="M 2.46875 -11.03125 C 3.007812 -11.625 3.664062 -12.085938 4.4375 -12.421875 C 5.207031 -12.765625 6.003906 -12.9375 6.828125 -12.9375 C 7.660156 -12.9375 8.378906 -12.847656 8.984375 -12.671875 C 9.585938 -12.492188 10.132812 -12.25 10.625 -11.9375 C 11.632812 -11.28125 12.378906 -10.40625 12.859375 -9.3125 L 11.28125 -9.3125 C 10.894531 -10 10.351562 -10.539062 9.65625 -10.9375 C 8.96875 -11.332031 8.1875 -11.53125 7.3125 -11.53125 C 6.4375 -11.53125 5.691406 -11.394531 5.078125 -11.125 C 4.460938 -10.863281 3.941406 -10.503906 3.515625 -10.046875 C 2.640625 -9.085938 2.203125 -7.867188 2.203125 -6.390625 C 2.203125 -4.898438 2.632812 -3.6875 3.5 -2.75 C 4.40625 -1.75 5.613281 -1.25 7.125 -1.25 C 8.332031 -1.25 9.375 -1.625 10.25 -2.375 C 11.175781 -3.15625 11.640625 -4.191406 11.640625 -5.484375 L 6.96875 -5.484375 L 6.96875 -6.796875 L 12.984375 -6.796875 L 12.984375 0 L 11.640625 0 L 11.640625 -2.265625 C 10.910156 -1.148438 9.894531 -0.40625 8.59375 -0.03125 C 8.113281 0.09375 7.484375 0.15625 6.703125 0.15625 C 5.929688 0.15625 5.15625 -0.015625 4.375 -0.359375 C 3.601562 -0.703125 2.945312 -1.164062 2.40625 -1.75 C 1.300781 -2.96875 0.75 -4.515625 0.75 -6.390625 C 0.75 -8.242188 1.320312 -9.789062 2.46875 -11.03125 Z M 2.46875 -11.03125 "/></g></g></g><g fill="#d9d9d9" fill-opacity="1"><g transform="translate(224.575781, 181.607673)"><g><path d="M 12.734375 0 L 11.125 0 L 9.5625 -3.703125 L 3.21875 -3.703125 L 1.65625 0 L 0.0625 0 L 5.484375 -12.78125 L 7.296875 -12.78125 Z M 9 -5.046875 L 6.390625 -11.28125 L 3.78125 -5.046875 Z M 9 -5.046875 "/></g></g></g><g fill="#d9d9d9" fill-opacity="1"><g transform="translate(252.819775, 181.607673)"><g><path d="M 6.953125 -12.78125 C 7.710938 -12.78125 8.445312 -12.632812 9.15625 -12.34375 C 9.863281 -12.0625 10.488281 -11.640625 11.03125 -11.078125 C 12.226562 -9.859375 12.828125 -8.296875 12.828125 -6.390625 C 12.828125 -4.484375 12.226562 -2.921875 11.03125 -1.703125 C 10.488281 -1.148438 9.863281 -0.726562 9.15625 -0.4375 C 8.445312 -0.144531 7.710938 0 6.953125 0 L 1.5625 0 L 1.5625 -12.78125 Z M 6.890625 -1.375 C 8.234375 -1.375 9.320312 -1.867188 10.15625 -2.859375 C 10.96875 -3.804688 11.375 -4.984375 11.375 -6.390625 C 11.375 -7.796875 10.96875 -8.972656 10.15625 -9.921875 C 9.320312 -10.910156 8.234375 -11.40625 6.890625 -11.40625 L 3.015625 -11.40625 L 3.015625 -1.375 Z M 6.890625 -1.375 "/></g></g></g><g fill="#d9d9d9" fill-opacity="1"><g transform="translate(281.875135, 181.607673)"><g><path d="M 12.734375 0 L 11.125 0 L 9.5625 -3.703125 L 3.21875 -3.703125 L 1.65625 0 L 0.0625 0 L 5.484375 -12.78125 L 7.296875 -12.78125 Z M 9 -5.046875 L 6.390625 -11.28125 L 3.78125 -5.046875 Z M 9 -5.046875 "/></g></g></g><g fill="#d9d9d9" fill-opacity="1"><g transform="translate(143.581097, 65.081251)"><g><path d="M 54.609375 -12.265625 C 54.773438 -12.203125 54.859375 -12.0625 54.859375 -11.84375 C 54.859375 -11.625 54.804688 -11.390625 54.703125 -11.140625 C 54.597656 -10.890625 54.519531 -10.675781 54.46875 -10.5 C 52.664062 -6.28125 50.535156 -2.242188 48.078125 1.609375 C 45.617188 5.472656 42.664062 8.875 39.21875 11.8125 C 37.382812 13.332031 35.453125 14.703125 33.421875 15.921875 C 31.398438 17.148438 29.222656 18.175781 26.890625 19 C 25.410156 19.53125 24.066406 19.898438 22.859375 20.109375 C 21.648438 20.328125 20.242188 20.425781 18.640625 20.40625 C 17.734375 20.425781 16.820312 20.398438 15.90625 20.328125 C 14.988281 20.265625 14.066406 20.109375 13.140625 19.859375 C 8.828125 18.628906 5.617188 16.003906 3.515625 11.984375 C 2.804688 10.585938 2.25 9.171875 1.84375 7.734375 C 1.445312 6.296875 1.148438 4.851562 0.953125 3.40625 C 0.460938 -0.476562 0.441406 -4.300781 0.890625 -8.0625 C 1.503906 -13.28125 2.5625 -18.296875 4.0625 -23.109375 C 5.570312 -27.921875 7.484375 -32.550781 9.796875 -37 C 12.304688 -41.9375 15.394531 -46.457031 19.0625 -50.5625 C 21.601562 -53.414062 24.5 -55.851562 27.75 -57.875 C 30.164062 -59.414062 32.859375 -60.425781 35.828125 -60.90625 C 37.140625 -61.132812 38.460938 -61.070312 39.796875 -60.71875 C 41.878906 -60.21875 43.207031 -58.9375 43.78125 -56.875 C 44.1875 -55.207031 44.1875 -53.140625 43.78125 -50.671875 C 43.375 -48.203125 42.738281 -45.625 41.875 -42.9375 C 41.007812 -40.257812 40.046875 -37.773438 38.984375 -35.484375 C 37.929688 -33.191406 36.960938 -31.363281 36.078125 -30 C 35.828125 -29.65625 35.515625 -29.445312 35.140625 -29.375 C 34.773438 -29.300781 34.363281 -29.320312 33.90625 -29.4375 C 33.675781 -29.488281 33.488281 -29.613281 33.34375 -29.8125 C 33.195312 -30.019531 33.171875 -30.207031 33.265625 -30.375 C 33.347656 -30.65625 33.457031 -30.925781 33.59375 -31.1875 C 33.65625 -31.332031 33.726562 -31.488281 33.8125 -31.65625 C 34.132812 -32.4375 34.507812 -33.289062 34.9375 -34.21875 C 35.875 -36.300781 36.847656 -38.582031 37.859375 -41.0625 C 38.867188 -43.550781 39.6875 -46.023438 40.3125 -48.484375 C 40.9375 -50.941406 41.164062 -53.171875 41 -55.171875 C 40.6875 -58.535156 38.976562 -59.789062 35.875 -58.9375 C 34.5 -58.5625 33.222656 -58.0625 32.046875 -57.4375 C 30.867188 -56.820312 29.734375 -56.125 28.640625 -55.34375 C 26.472656 -53.769531 24.5 -52.03125 22.71875 -50.125 C 20.9375 -48.21875 19.3125 -46.179688 17.84375 -44.015625 C 10.53125 -33.390625 6.039062 -21.347656 4.375 -7.890625 C 3.882812 -3.992188 3.894531 -0.015625 4.40625 4.046875 C 4.695312 6.378906 5.378906 8.671875 6.453125 10.921875 C 7.535156 13.140625 8.828125 14.832031 10.328125 16 C 11.828125 17.175781 13.378906 17.945312 14.984375 18.3125 C 16.597656 18.6875 18.117188 18.785156 19.546875 18.609375 C 22.046875 18.328125 24.398438 17.675781 26.609375 16.65625 C 30.984375 14.65625 34.554688 12.523438 37.328125 10.265625 C 40.109375 8.015625 42.441406 5.648438 44.328125 3.171875 C 46.210938 0.691406 47.976562 -1.898438 49.625 -4.609375 C 50.289062 -5.679688 50.863281 -6.71875 51.34375 -7.71875 C 51.90625 -8.894531 52.648438 -10.207031 53.578125 -11.65625 C 53.890625 -12.113281 54.234375 -12.316406 54.609375 -12.265625 Z M 54.609375 -12.265625 "/></g></g></g><g fill="#d9d9d9" fill-opacity="1"><g transform="translate(155.579683, 84.974497)"><g><path d="M 69.4375 -10.921875 C 69.570312 -10.960938 69.960938 -11.050781 70.609375 -11.1875 C 71.585938 -11.363281 72.757812 -11.570312 74.125 -11.8125 C 75.488281 -12.050781 76.691406 -12.210938 77.734375 -12.296875 C 78.773438 -12.378906 79.296875 -12.296875 79.296875 -12.046875 C 79.160156 -11.835938 78.515625 -11.5625 77.359375 -11.21875 C 76.203125 -10.875 74.835938 -10.535156 73.265625 -10.203125 C 71.703125 -9.867188 70.253906 -9.5625 68.921875 -9.28125 C 67.597656 -9.007812 66.710938 -8.832031 66.265625 -8.75 C 65.316406 -8.570312 64.601562 -8.082031 64.125 -7.28125 C 60.019531 -1.53125 55.269531 3.625 49.875 8.1875 C 45.925781 11.601562 41.671875 14.59375 37.109375 17.15625 C 35.335938 18.175781 33.523438 19.070312 31.671875 19.84375 C 29.816406 20.613281 27.894531 21.226562 25.90625 21.6875 C 24.019531 22.082031 22.128906 22.195312 20.234375 22.03125 C 17.972656 21.800781 16.390625 20.96875 15.484375 19.53125 C 14.585938 18.09375 14.5 16.289062 15.21875 14.125 C 15.738281 12.78125 16.460938 11.582031 17.390625 10.53125 C 18.859375 8.820312 20.5 7.3125 22.3125 6 C 24.789062 4.195312 27.382812 2.585938 30.09375 1.171875 C 30.320312 1.046875 30.550781 0.929688 30.78125 0.828125 C 31.0625 0.691406 31.347656 0.53125 31.640625 0.34375 C 32.035156 0.15625 32.234375 -0.164062 32.234375 -0.625 C 32.265625 -0.90625 32.28125 -1.203125 32.28125 -1.515625 C 32.28125 -1.941406 32.28125 -2.390625 32.28125 -2.859375 C 32.28125 -8.347656 32.28125 -13.859375 32.28125 -19.390625 C 32.28125 -26.859375 32.28125 -34.34375 32.28125 -41.84375 C 32.28125 -41.894531 32.28125 -41.960938 32.28125 -42.046875 C 32.28125 -42.710938 32.289062 -43.378906 32.3125 -44.046875 C 32.425781 -44.734375 32.910156 -45.09375 33.765625 -45.125 C 34.597656 -45.09375 35.054688 -44.722656 35.140625 -44.015625 C 35.203125 -43.421875 35.21875 -42.8125 35.1875 -42.1875 C 35.1875 -42.039062 35.1875 -41.910156 35.1875 -41.796875 C 35.21875 -35.835938 35.21875 -29.878906 35.1875 -23.921875 C 35.1875 -17.390625 35.203125 -10.847656 35.234375 -4.296875 C 35.234375 -4.046875 35.21875 -3.804688 35.1875 -3.578125 C 35.125 -2.460938 35.222656 -1.835938 35.484375 -1.703125 C 35.742188 -1.578125 36.46875 -1.785156 37.65625 -2.328125 C 37.71875 -2.359375 37.789062 -2.390625 37.875 -2.421875 C 44.96875 -5.421875 52.289062 -7.671875 59.84375 -9.171875 C 61.5625 -9.453125 62.847656 -10.351562 63.703125 -11.875 C 65.722656 -15.375 67.429688 -19.117188 68.828125 -23.109375 C 70.222656 -27.097656 71.175781 -31.0625 71.6875 -35 C 72.207031 -38.9375 72.148438 -42.582031 71.515625 -45.9375 C 70.890625 -49.300781 69.570312 -52.109375 67.5625 -54.359375 C 65.550781 -56.609375 62.722656 -58.035156 59.078125 -58.640625 C 55.429688 -59.242188 50.84375 -58.75 45.3125 -57.15625 C 42.519531 -56.394531 39.421875 -55.257812 36.015625 -53.75 C 32.617188 -52.25 29.164062 -50.453125 25.65625 -48.359375 C 22.144531 -46.265625 18.828125 -43.984375 15.703125 -41.515625 C 12.585938 -39.046875 9.910156 -36.484375 7.671875 -33.828125 C 5.429688 -31.179688 3.875 -28.535156 3 -25.890625 C 2.738281 -25.066406 2.179688 -24.671875 1.328125 -24.703125 C 0.867188 -24.703125 0.53125 -24.835938 0.3125 -25.109375 C 0.101562 -25.378906 0.046875 -25.726562 0.140625 -26.15625 C 0.453125 -27.175781 0.890625 -28.140625 1.453125 -29.046875 C 2.816406 -31.253906 4.382812 -33.296875 6.15625 -35.171875 C 10.695312 -40.097656 16.195312 -44.613281 22.65625 -48.71875 C 29.125 -52.820312 35.550781 -55.941406 41.9375 -58.078125 C 47.84375 -59.960938 52.921875 -60.789062 57.171875 -60.5625 C 61.429688 -60.332031 64.925781 -59.253906 67.65625 -57.328125 C 70.382812 -55.410156 72.378906 -52.847656 73.640625 -49.640625 C 74.898438 -46.429688 75.488281 -42.796875 75.40625 -38.734375 C 75.320312 -34.671875 74.601562 -30.394531 73.25 -25.90625 C 71.894531 -21.414062 69.945312 -16.921875 67.40625 -12.421875 C 66.875 -11.484375 66.710938 -10.9375 66.921875 -10.78125 C 67.140625 -10.625 67.617188 -10.628906 68.359375 -10.796875 C 68.671875 -10.847656 69.03125 -10.890625 69.4375 -10.921875 Z M 59.03125 -5.15625 C 59.125 -5.269531 59.207031 -5.367188 59.28125 -5.453125 C 59.707031 -5.890625 59.992188 -6.414062 60.140625 -7.03125 C 59.921875 -7.195312 59.695312 -7.273438 59.46875 -7.265625 C 59.238281 -7.253906 59.007812 -7.222656 58.78125 -7.171875 C 58.6875 -7.140625 58.601562 -7.109375 58.53125 -7.078125 C 54.96875 -6.171875 51.441406 -5.148438 47.953125 -4.015625 C 44.460938 -2.890625 41.019531 -1.578125 37.625 -0.078125 C 37.382812 0.0351562 37.171875 0.140625 36.984375 0.234375 C 36.410156 0.453125 35.992188 0.648438 35.734375 0.828125 C 35.472656 1.003906 35.316406 1.226562 35.265625 1.5 C 35.210938 1.769531 35.203125 2.171875 35.234375 2.703125 C 35.234375 2.984375 35.234375 3.328125 35.234375 3.734375 C 35.203125 4.328125 35.203125 4.910156 35.234375 5.484375 C 35.234375 6.046875 35.21875 6.632812 35.1875 7.25 C 35.1875 7.820312 35.15625 8.390625 35.09375 8.953125 C 34.945312 9.722656 34.476562 10.09375 33.6875 10.0625 C 32.832031 10 32.390625 9.515625 32.359375 8.609375 C 32.304688 7.609375 32.28125 6.625 32.28125 5.65625 C 32.28125 4.96875 32.28125 4.300781 32.28125 3.65625 C 32.226562 2.96875 31.894531 2.765625 31.28125 3.046875 C 29.375 4.078125 27.539062 5.203125 25.78125 6.421875 C 24.03125 7.648438 22.40625 9.035156 20.90625 10.578125 C 19.957031 11.546875 19.1875 12.625 18.59375 13.8125 C 18.113281 14.789062 17.851562 15.820312 17.8125 16.90625 C 17.851562 18.726562 18.742188 19.867188 20.484375 20.328125 C 21.554688 20.585938 22.625 20.597656 23.6875 20.359375 C 25.738281 19.960938 27.71875 19.367188 29.625 18.578125 C 31.53125 17.796875 33.382812 16.882812 35.1875 15.84375 C 39.851562 13.15625 44.160156 10.039062 48.109375 6.5 C 52.066406 2.96875 55.707031 -0.914062 59.03125 -5.15625 Z M 59.03125 -5.15625 "/></g></g></g></svg>